<svg width="18" height="18" viewBox="0 0 18 18" fill="none" xmlns="http://www.w3.org/2000/svg">
<path d="M9 6V9.75H12.75V8.25H10.5V6H9Z" fill="white"/>
<path d="M15.969 6.37275C15.6307 5.57029 15.1396 4.84126 14.523 4.22625C13.5897 3.29292 12.4033 2.65358 11.1105 2.38725C10.2132 2.20462 9.2883 2.20462 8.391 2.38725C7.097 2.65188 5.9096 3.29175 4.977 4.227C4.36192 4.84267 3.871 5.5709 3.531 6.372C3.17933 7.20346 2.99874 8.09723 3 9L3.00075 9.01875H1.5L3.75 12L6 9.01875H4.50075L4.5 9C4.49784 7.95403 4.8101 6.93156 5.39625 6.06525C5.77434 5.50627 6.25571 5.02464 6.8145 4.64625C7.38296 4.2633 8.02059 3.9948 8.69175 3.85575C10.0556 3.57533 11.4751 3.84797 12.638 4.61375C13.801 5.37953 14.6122 6.57577 14.8935 7.9395C15.035 8.63841 15.035 9.35859 14.8935 10.0575C14.7563 10.7292 14.4876 11.3672 14.103 11.9348C13.9155 12.213 13.7002 12.4748 13.4625 12.7118C12.9834 13.1903 12.4169 13.5724 11.7937 13.8375C11.4764 13.9717 11.1465 14.0742 10.809 14.1435C10.1103 14.2849 9.39042 14.2849 8.69175 14.1435C8.02072 14.0059 7.38335 13.7376 6.816 13.3538C6.53696 13.1652 6.27654 12.9505 6.03825 12.7125L4.97775 13.773C5.60409 14.4002 6.34802 14.8977 7.16692 15.2369C7.98582 15.5762 8.86361 15.7505 9.75 15.75C10.6523 15.7496 11.5454 15.5694 12.3772 15.2198C13.583 14.7096 14.6145 13.8602 15.3465 12.7748C16.0998 11.6602 16.5017 10.3453 16.5 9C16.5019 8.09741 16.3213 7.20376 15.969 6.37275V6.37275Z" fill="white"/>
</svg>
